<svg width="87" height="100" viewBox="0 0 87 100" fill="none" xmlns="http://www.w3.org/2000/svg">
<path d="M18.7054 86.4834L17.0442 94.0586C17.7087 91.5336 19.1852 87.4531 21.0311 87.6795C24.1459 88.0616 23.2461 92.3309 23.3568 94.0586" stroke="#444A71" stroke-width="3" stroke-linecap="round" stroke-linejoin="round"/>
<path d="M34.7051 92.36C34.2819 91.1777 33.1306 89.2387 31.9116 90.9412C30.3878 93.0693 30.6418 96.3797 32.6735 95.9068C34.2988 95.5285 35.3823 94.0151 35.721 93.3058L37.2447 95.9068" stroke="#444A71" stroke-width="3" stroke-linecap="round" stroke-linejoin="round"/>
<path d="M44.1886 89.6398C45.1355 95.3212 44.8199 99.4244 47.345 97.8462" stroke="#444A71" stroke-width="3" stroke-linecap="round" stroke-linejoin="round"/>
<path d="M42.9261 93.4274H46.398" stroke="#444A71" stroke-width="3" stroke-linecap="round"/>
<path d="M53.6576 90.5867C53.868 93.4274 54.1626 97.6568 56.1827 95.6368C58.2027 93.6167 57.866 90.7971 57.4452 89.6398L60.6015 95.6368" stroke="#444A71" stroke-width="3" stroke-linecap="round" stroke-linejoin="round"/>
<path d="M65.0204 86.7991L68.1767 93.1117C67.5454 91.5336 65.6517 86.7991 68.1767 85.8522" stroke="#444A71" stroke-width="3" stroke-linecap="round" stroke-linejoin="round"/>
<path d="M74.5254 85.0445C77.2609 83.4663 79.8263 80.7093 78.6286 80.31C76.7348 79.6787 74.154 81.2937 74.5254 83.1507C75.1566 86.3071 79.5755 86.6227 81.7849 84.0976" stroke="#444A71" stroke-width="3" stroke-linecap="round" stroke-linejoin="round"/>
<path d="M84.4834 43.2417C84.4834 66.0189 66.0189 84.4834 43.2417 84.4834C20.4645 84.4834 2 66.0189 2 43.2417C2 20.4645 20.4645 2 43.2417 2C66.0189 2 84.4834 20.4645 84.4834 43.2417Z" stroke="#444A71" stroke-width="4"/>
<path d="M58.7077 82.3802C57.1296 61.2328 33.537 47.5134 27.313 47.2984C25.3838 53.3532 32.1946 74.1737 48.6075 85.2209" stroke="#444A71" stroke-width="4"/>
<path d="M60.6015 44.5042C54.2889 31.8789 49.5544 29.0382 41.8667 24.1354C36.6798 33.1437 36.6134 42.6105 38.5072 52.0794" stroke="#444A71" stroke-width="4"/>
<path d="M78.9083 65.6516C81.7489 48.6074 72.0832 31.1024 64.5937 23.5159C60.3065 30.4712 56.4983 48.2918 68.808 76.3832" stroke="#444A71" stroke-width="4"/>
<path d="M4.7345 25.2507C5.89182 25.9871 9.27961 27.0182 13.5722 25.2507C18.938 23.0412 20.5161 10.4159 29.9851 10.1003C39.4541 9.78463 42.6105 11.9941 46.398 10.1003C49.3991 8.59976 49.5544 3.78761 52.7107 2.20944" stroke="#444A71" stroke-width="3"/>
<path d="M1.26254 41.3479C5.99704 42.6104 12.9949 41.9623 17.6755 37.876C22.6591 33.5251 23.9881 27.1444 32.1946 21.463C42.5472 14.2958 46.7137 20.5161 56.6312 19.2278C61.0964 18.6478 65.0204 12.9409 65.0204 8.2355" stroke="#444A71" stroke-width="3"/>
<path d="M4.10324 56.1827C19.8849 53.9733 23.0412 47.0293 26.1976 42.2948C27.8493 39.8172 30.5666 37.2447 36.9291 37.2448" stroke="#444A71" stroke-width="3"/>
<path d="M12.6253 72.7534C13.8589 70.3034 25.2506 71.333 27.7757 56.4983" stroke="#444A71" stroke-width="3"/>
<path d="M69.4393 30.1429C72.5956 28.7226 77.3301 28.7226 79.2239 20.8318" stroke="#444A71" stroke-width="3"/>
<path d="M75.9097 41.6636C78.557 40.508 82.5278 40.508 84.1162 34.0884" stroke="#444A71" stroke-width="3"/>
<path d="M23.3568 80.8021C26.615 79.0688 31.5022 79.0688 33.4571 69.4393" stroke="#444A71" stroke-width="3"/>
</svg>
